<svg fill="none" xmlns="http://www.w3.org/2000/svg" viewBox="0 0 913 519"><g opacity=".75" clip-path="url(#a)"><path d="M653.208 106.386h2.768l3.852 81.442-.124 44.847h-9.964l.159-44.847 3.309-81.442Z" fill="#8DA35A"/><path d="M680.523 94.123h-3.321a33.845 33.845 0 0 1-6.631 20.277 33.816 33.816 0 0 1-17.442 12.273l.961 3.176a37.138 37.138 0 0 0 19.146-13.471 37.169 37.169 0 0 0 7.287-22.255Z" fill="#8DA35A"/><path d="M659.613 89.286c.272-4.521-3.083-8.477-3.083-8.477s-4.259 3.481-4.519 8.047c-.26 4.566 3.604 8.477 3.604 8.477s3.773-3.526 3.998-8.047ZM661.037 102.08c2.711-3.673 7.76-4.52 7.76-4.52s1.13 5.401-1.615 9.041c-2.745 3.639-8.201 4.261-8.201 4.261s-.655-5.098 2.056-8.782ZM642.759 100.351c-3.253-3.21-3.389-8.341-3.389-8.341s5.502-.283 8.744 2.938 2.993 8.714 2.993 8.714-5.128-.09-8.348-3.311ZM684.341 93.445a5.243 5.243 0 0 0-8.948-3.708 5.243 5.243 0 0 0-1.136 5.715 5.244 5.244 0 0 0 4.842 3.237 5.24 5.24 0 0 0 5.242-5.244Z" fill="#F09F01"/><path d="M631.373 167.134h-2.757l-3.863 56.488.136 8.442h9.737l.068-8.442-3.321-56.488Z" fill="#8DA35A"/><path d="M625.815 151.843c-.26-4.521 3.095-8.454 3.095-8.454s4.248 3.469 4.519 8.035c.271 4.566-3.604 8.488-3.604 8.488s-3.795-3.515-4.01-8.069ZM624.38 164.614c-2.711-3.662-7.76-4.521-7.76-4.521s-1.13 5.402 1.615 9.042c2.745 3.639 8.201 4.238 8.201 4.238s.655-5.063-2.056-8.759ZM642.658 162.907c3.253-3.221 3.389-8.363 3.389-8.363s-5.479-.26-8.733 2.95c-3.253 3.209-2.993 8.714-2.993 8.714s5.117-.068 8.337-3.301Z" fill="#F09F01"/><path d="M818.857 329.431h2.756l3.864 56.488-.136 8.442h-9.737l-.057-8.442 3.31-56.488Z" fill="#D1B683"/><path d="M824.438 314.196c.259-4.577-3.096-8.465-3.096-8.465s-4.247 3.47-4.518 8.047c-.271 4.577 3.603 8.476 3.603 8.476s3.773-3.537 4.011-8.058ZM825.85 326.911c2.711-3.673 7.76-4.521 7.76-4.521s1.13 5.402-1.615 9.042c-2.745 3.639-8.201 4.238-8.201 4.238s-.656-5.075 2.056-8.759ZM807.572 325.204c-3.253-3.221-3.389-8.363-3.389-8.363s5.49-.271 8.744 2.938c3.253 3.21 2.982 8.714 2.982 8.714s-5.117-.09-8.337-3.289Z" fill="#F09F01"/><path d="M894.18 511.044v-6.77l8.416-6.646v-45.434H370.405v15.145h-67.924l-62.909-.125-20.593 29.431v14.399H894.18Z" fill="#E7EACC"/><path d="M805.2 199.639h2.35v-47.344c0-4.017-1.595-7.869-4.434-10.709a15.134 15.134 0 0 0-25.84 10.709l-1.605 40.574 3.954-1.684v-38.89a12.788 12.788 0 0 1 21.83-9.047 12.796 12.796 0 0 1 3.745 9.047v47.344Z" fill="#6D4655"/><path d="M779.625 191.185 793 203.165l1.83-17.236a15.149 15.149 0 0 1 9.243-14.365 15.138 15.138 0 0 1 11.776 0 15.127 15.127 0 0 1 8.213 8.444 15.167 15.167 0 0 1 1.031 5.921v30.753h-2.339v-30.753a12.786 12.786 0 1 0-25.574 0v82.279l-.068 33.205h-7.139v-33.205l2.259-57.64-16.64-17.688 4.033-1.695Z" fill="#563D4D"/><path d="M761.37 191.298h-2.259v-16.953a9.49 9.49 0 0 1 16.199-6.713 9.497 9.497 0 0 1 2.779 6.713l1.593 16.897-3.943 1.695v-18.648a7.142 7.142 0 0 0-9.871-6.6 7.138 7.138 0 0 0-4.407 6.6l-.091 17.009Z" fill="#563D4D"/><path d="m759.495 185.67 5.908 5.911-5.908 5.911-5.896-5.911 5.896-5.911Z" fill="#E7EACC"/><path d="M780.167 248.283H777.4l-3.864 58.895h9.941l-3.31-58.895Z" fill="#D1B683"/><path d="M752.864 236.02h3.31a33.827 33.827 0 0 0 6.629 20.278 33.794 33.794 0 0 0 17.444 12.272l-.961 3.176a37.113 37.113 0 0 1-19.144-13.471 37.136 37.136 0 0 1-7.278-22.255ZM773.796 231.205c-.259-4.52 3.095-8.465 3.095-8.465s4.248 3.47 4.519 8.047c.271 4.578-3.604 8.466-3.604 8.466s-3.806-3.493-4.01-8.048ZM772.339 243.965c-2.711-3.673-7.76-4.52-7.76-4.52s-1.13 5.413 1.626 9.041c2.757 3.628 8.19 4.25 8.19 4.25s.655-5.075-2.056-8.771ZM790.628 242.259c3.242-3.21 3.389-8.364 3.389-8.364s-5.502-.26-8.744 2.95-3.004 8.714-3.004 8.714 5.083-.079 8.359-3.3Z" fill="#D1B683"/><path d="M749.023 235.331a5.244 5.244 0 0 1 8.952-3.693 5.248 5.248 0 0 1-3.71 8.948 5.249 5.249 0 0 1-3.71-1.54 5.24 5.24 0 0 1-1.532-3.715Z" fill="#D1B683"/><path d="m808.815 298.091.926 13.201a9.122 9.122 0 0 0-6.297 2.673 9.136 9.136 0 0 0-2.672 6.3v54.465H774.79v-54.51a8.978 8.978 0 0 0-5.966-8.415 8.967 8.967 0 0 0-3.602-.502l1.13-13.212h42.463Z" fill="#FEC887"/><path d="M527.729 267.677a12.583 12.583 0 0 1 11.622 7.791c.631 1.529.954 3.168.951 4.822v13.02l.068 2.611 12.956-11.585 2.904 1.695-15.137 16.015.564 34.2H536.8l1.559-48.44v-7.516c0-2.818-1.119-5.52-3.11-7.512a10.616 10.616 0 0 0-18.127 7.512v32.245h-1.954V280.29a12.592 12.592 0 0 1 7.747-11.646 12.588 12.588 0 0 1 4.814-.967Z" fill="#6D4655"/><path d="M531.728 301.617h-1.932v-44.756c0-3.333 1.324-6.53 3.68-8.887a12.555 12.555 0 0 1 17.764 0 12.57 12.57 0 0 1 3.679 8.887l1.311 29.08-2.903-1.695-.373-27.43a10.627 10.627 0 0 0-10.613-10.278 10.623 10.623 0 0 0-10.613 10.278v44.801ZM516.139 307.991l4.902 4.905-4.902 4.917-4.903-4.917 4.903-4.905Z" fill="#6D4655"/><path d="m530.854 296.638-4.907 4.905 4.902 4.909 4.907-4.904-4.902-4.91ZM577.636 287.806h1.943v-19.101a12.574 12.574 0 0 0-7.669-11.962 12.561 12.561 0 0 0-9.796 0 12.58 12.58 0 0 0-7.669 11.962l-1.13 15.586 2.903 1.695.17-17.281a10.63 10.63 0 0 1 3.11-7.512 10.615 10.615 0 0 1 15.017 0 10.63 10.63 0 0 1 3.11 7.512l.011 19.101Z" fill="#6D4655"/><path d="m578.497 282.83-4.906 4.906 4.903 4.908 4.906-4.905-4.903-4.909Z" fill="#6D4655"/><path d="M601.483 310.704v14.568h63.259v-14.568h-8.133v-13.653a13.371 13.371 0 0 1 8.133-12.319v-25.385h-63.259v25.464a13.415 13.415 0 0 1 8.031 12.274v13.653l-8.031-.034Z" fill="#E5A793"/><path d="M590.028 325.103v9.561l9.76 17.123v23.146h66.705v-23.146l9.749-17.123v-9.561h-86.214ZM676.58 259.754V237.15l-34.781-9.211-3.479 2.159h-7.907l-6.293-6.883-13.758-3.684-21.463 8.047v32.165l87.681.011Z" fill="#CA766F"/><path fill-rule="evenodd" clip-rule="evenodd" d="M619.749 310.704h26.716v-17.982a13.376 13.376 0 0 0-4.07-9.192 13.358 13.358 0 0 0-18.623.047 13.372 13.372 0 0 0-4.023 9.213v17.914Z" fill="#563D4D"/><path d="m741.455 212.998.96 13.845a9.665 9.665 0 0 0-6.619 2.814 9.575 9.575 0 0 0-2.802 6.623v41.75H688.69v-41.818a9.476 9.476 0 0 0-3.014-6.847 9.475 9.475 0 0 0-7.04-2.522l1.13-13.868 61.689.023Z" fill="#D1B683"/><path d="M703.059 234.958a4.056 4.056 0 0 0-6.992-3.007 4.056 4.056 0 0 0-1.107 3.007v34.55h8.099v-34.55ZM714.875 234.958a4.056 4.056 0 0 0-6.992-3.007 4.056 4.056 0 0 0-1.108 3.007v34.55h8.1v-34.55ZM726.679 234.958a4.064 4.064 0 0 0-1.107-3.007 4.056 4.056 0 0 0-6.992 3.007v34.55h8.099v-34.55Z" fill="#543B4D"/><path d="m668.526 212.195 6.247 7.358h72.737l5.173-7.358-2.756-12.24-7.693-2.78.136-20.841a21.675 21.675 0 0 1 5.241-14.173v-22.265l-30.5-8.058-3.061 1.888h-6.902l-5.479-6.013-17.362-4.589-13.465 8.398v28.176a21.474 21.474 0 0 1 7.772 16.614v20.841l-7.456 2.655-2.632 12.387Z" fill="#E7EACC"/><path d="M682.466 135.907h10.742v-11.946l-9.003-1.605-13.951 8.872-.632 15.28h12.844v-10.601Z" fill="#D1B683"/><path d="M702.935 155.041a14.977 14.977 0 0 0-14.81 15.133v21.474h29.619v-21.474a14.973 14.973 0 0 0-14.809-15.133Z" fill="#E1DAB7"/><path d="m744.426 259.811-2.61.87-5.444-9.121-45.739 11.969-2.553 4.058-2.542-.068-8.596 13.732-4.812 7.674a15.117 15.117 0 0 1 7.139 12.839v73.169h20.796v-76.854c0-4.526 1.797-8.867 4.996-12.067a17.053 17.053 0 0 1 24.123 0 17.068 17.068 0 0 1 4.996 12.067v76.854h21.09v-83.635a9.221 9.221 0 0 1 3.536-7.256l-14.38-24.231Z" fill="#DDE281"/><path d="M756.502 374.933v-12.432a8.61 8.61 0 0 0 4.835-9.665 8.61 8.61 0 0 0-8.411-6.781 8.602 8.602 0 0 0-5.401 1.906 8.616 8.616 0 0 0 1.826 14.54v12.432M693.943 340.473v34.46h26.964v-25.124a8.589 8.589 0 0 0 1.803-14.497 8.582 8.582 0 0 0-13.771 4.857 8.587 8.587 0 0 0 4.806 9.64v7.493a6.35 6.35 0 0 1-7.618 6.125 6.344 6.344 0 0 1-3.226-1.74 6.214 6.214 0 0 1-1.796-4.306v-16.953a8.598 8.598 0 0 0 4.818-9.652 8.601 8.601 0 0 0-8.399-6.768 8.6 8.6 0 0 0-7.691 12.444 8.594 8.594 0 0 0 4.11 3.976v.045ZM561.155 322.786v52.147h-25.88v-24.118a8.261 8.261 0 0 1-4.634-9.272 8.257 8.257 0 0 1 13.249-4.675 8.265 8.265 0 0 1-1.747 13.947v7.199a6.081 6.081 0 0 0 6.039 5.855 6.08 6.08 0 0 0 6.105-5.787v-35.296a8.258 8.258 0 0 1-4.635-9.272 8.261 8.261 0 0 1 8.069-6.504 8.257 8.257 0 0 1 8.068 6.504 8.268 8.268 0 0 1-4.634 9.272ZM574.981 342.451v32.527h25.869v-19.055a8.248 8.248 0 0 0 4.623-9.259 8.244 8.244 0 0 0-8.057-6.492 8.245 8.245 0 0 0-8.057 6.492 8.254 8.254 0 0 0 4.623 9.259v7.2a6.083 6.083 0 0 1-1.844 4.141 6.074 6.074 0 0 1-8.409.047 6.085 6.085 0 0 1-1.891-4.121v-20.739a8.254 8.254 0 0 0 1.739-13.926 8.245 8.245 0 0 0-13.23 4.667 8.254 8.254 0 0 0 4.623 9.259h.011Z" fill="#B5D375"/><path d="M705.917 177.182a6.972 6.972 0 0 0-11.898-4.931 6.976 6.976 0 0 0-2.042 4.931v9.369h13.94v-9.369Z" fill="#543B4D"/><path d="M902.596 435.964H338.663v17.394h563.933v-17.394Z" fill="#E6EACB"/><path d="M913.011 429.126H328.236v6.917h584.775v-6.917Z" fill="#CF9B89"/><path d="M878.004 416.897h-514.76v12.15h514.76v-12.15Z" fill="#E6EACB"/><path d="M887.561 409.823H353.698v7.075h533.863v-7.075Z" fill="#CF9B89"/><path d="M852.384 397.56h-463.52v12.262h463.52V397.56Z" fill="#E6EACB"/><path d="M861.941 390.564H379.307v6.996h482.634v-6.996Z" fill="#CF9B89"/><path d="M826.787 378.459H414.472v12.105h412.315v-12.105Z" fill="#E6EACB"/><path d="M836.332 371.949H404.927v6.51h431.405v-6.51Z" fill="#CF9B89"/><path d="M850.882 416.061a6.99 6.99 0 0 0 8.563-4.939 7.016 7.016 0 0 0-4.937-8.601 7.013 7.013 0 0 0-8.574 4.951 7.034 7.034 0 0 0 4.948 8.589Z" fill="#8CA063"/><path d="M859.648 420.017a5.214 5.214 0 0 0 6.394-3.696 5.228 5.228 0 0 0-1.852-5.514 5.224 5.224 0 0 0-5.798-.384 5.234 5.234 0 0 0-1.917 7.148 5.238 5.238 0 0 0 3.173 2.446Z" fill="#8CA063"/><path d="M870.944 411.755a2.547 2.547 0 0 0 2.214 1.763 2.545 2.545 0 0 0 2.732-2.834 2.539 2.539 0 0 0-1.841-2.15 2.54 2.54 0 0 0-1.478.034 2.53 2.53 0 0 0-1.627 3.187Z" fill="#DAE6AE"/><path d="M863.274 405.505a4.107 4.107 0 0 0-1.166 2.959 4.117 4.117 0 0 0 1.291 2.907 4.158 4.158 0 0 0 5.862-.158 4.139 4.139 0 0 0-.428-5.546 4.13 4.13 0 0 0-5.559-.105v-.057Z" fill="#8CA063"/><path d="M774.395 408.003a3.914 3.914 0 0 0-5.977-.977 3.925 3.925 0 0 0 2.327 6.859 3.909 3.909 0 0 0 2.215-.514 3.891 3.891 0 0 0 1.938-3.917 3.904 3.904 0 0 0-.503-1.451ZM760.512 404.827a2.679 2.679 0 0 0-4.909.623 2.676 2.676 0 0 0 .946 2.823 2.674 2.674 0 0 0 2.969.205 2.668 2.668 0 0 0 .994-3.651ZM765.708 409.698a3.006 3.006 0 0 0-4.577-.786 3.01 3.01 0 0 0-.887 3.219 3.006 3.006 0 0 0 4.335 1.67 3.04 3.04 0 0 0 1.129-4.103Z" fill="#B7CE64"/><path d="M782.585 402.013a5.333 5.333 0 0 0-1.828 5.646 5.338 5.338 0 0 0 4.52 3.842 5.334 5.334 0 0 0 4.775-8.629 5.34 5.34 0 0 0-7.467-.859Z" fill="#90A367"/><path d="M788.267 411.156a5.642 5.642 0 0 0 5.969 1.868 5.649 5.649 0 0 0 3.448-7.999 5.653 5.653 0 0 0-5.455-3.061 5.64 5.64 0 0 0-4.5 2.871 5.654 5.654 0 0 0 .538 6.321Z" fill="#8CA063"/><path d="M807.685 412.06a5.784 5.784 0 0 0 8.077-1.277 5.782 5.782 0 0 0 1.05-4.306 5.794 5.794 0 0 0-2.304-3.786 5.813 5.813 0 0 0-8.099 1.254 5.827 5.827 0 0 0-1.037 4.322 5.817 5.817 0 0 0 2.313 3.793Z" fill="#B7CE64"/><path d="M799.586 407.652a5.934 5.934 0 0 0 8.883-2.321 5.948 5.948 0 0 0-3.999-8.27 5.941 5.941 0 0 0-6.195 2.273 5.949 5.949 0 0 0-1.075 4.432 5.933 5.933 0 0 0 2.386 3.886ZM830.278 405.516a5.934 5.934 0 0 0 6.593.247 5.948 5.948 0 0 0-1.723-10.845 5.95 5.95 0 0 0-3.441.201 5.953 5.953 0 0 0-3.725 4.19 5.94 5.94 0 0 0 2.296 6.207Z" fill="#B7CE64"/><path d="M816.417 406.793a8.647 8.647 0 0 0 9.601.362 8.66 8.66 0 0 0-2.503-15.793 8.646 8.646 0 0 0-9.018 3.316 8.666 8.666 0 0 0-1.555 6.457 8.663 8.663 0 0 0 3.475 5.658ZM854.576 406.568a7.06 7.06 0 0 1-9.771-1.978 7.067 7.067 0 0 1 1.954-9.799 7.09 7.09 0 0 1 9.805 1.966 7.103 7.103 0 0 1-1.988 9.811Z" fill="#B7CE64"/><path d="M863.037 404.771a5.266 5.266 0 0 1-5.849-.023 5.268 5.268 0 0 1 1.933-9.537 5.26 5.26 0 0 1 5.396 2.258 5.282 5.282 0 0 1-1.48 7.302ZM873.125 403.335a3.167 3.167 0 0 1 2.674-4.097 3.17 3.17 0 0 1 3.493 3.425 3.165 3.165 0 0 1-2.202 2.74 3.16 3.16 0 0 1-3.965-2.068ZM878.535 393.807a2.146 2.146 0 0 1 1.446-2.757 2.155 2.155 0 0 1 2.786 1.825 2.156 2.156 0 0 1-3.486 1.927 2.167 2.167 0 0 1-.712-1.028l-.034.033ZM878.852 399.312a2.43 2.43 0 1 1 3.038 1.582 2.408 2.408 0 0 1-1.847-.16 2.42 2.42 0 0 1-1.191-1.422ZM848.454 399.809a8.32 8.32 0 0 1-4.625 1.376 8.318 8.318 0 1 1 3.256-15.992 8.318 8.318 0 0 1 3.718 3.077 8.299 8.299 0 0 1-2.349 11.539Z" fill="#B7CE64"/><path d="M876.672 410.998a2.01 2.01 0 1 0 1.604 2.339 1.99 1.99 0 0 0-1.604-2.339Z" fill="#DAE6AE"/><path d="M776.779 410.094a3.104 3.104 0 0 0 4.337.486 3.084 3.084 0 0 0-1.549-5.48 3.083 3.083 0 0 0-2.269.642 3.131 3.131 0 0 0-.519 4.352ZM775.807 412.173a2.187 2.187 0 0 0-.339 3.052 2.16 2.16 0 0 0 3.33.029 2.164 2.164 0 0 0 .264-2.378 2.156 2.156 0 0 0-3.255-.703Z" fill="#B7CE64"/><path d="M820.71 413.733a6.987 6.987 0 0 1-7.4 2.379 6.987 6.987 0 0 1-2.428-1.249 7.033 7.033 0 0 1-1.13-9.855 7.013 7.013 0 0 1 9.84-1.13 7.021 7.021 0 0 1 1.129 9.844l-.011.011ZM844.85 415.304a10.48 10.48 0 0 1-14.685 1.695 10.535 10.535 0 0 1-1.729-14.794 10.521 10.521 0 0 1 7.037-3.892 10.518 10.518 0 0 1 11.631 9.253 10.54 10.54 0 0 1-2.198 7.738h-.056Z" fill="#8CA063"/><path d="M810.679 418.988a6.254 6.254 0 0 1-8.789 1.006 6.233 6.233 0 0 1-2.325-4.182 6.237 6.237 0 0 1 1.32-4.599 6.257 6.257 0 0 1 10.373.835 6.242 6.242 0 0 1 .544 4.767 6.245 6.245 0 0 1-1.123 2.173Z" fill="#8CA063"/><path d="M804.839 410.795a4.99 4.99 0 0 1-7.015.802 4.978 4.978 0 0 1-1.693-5.277c.18-.63.483-1.218.891-1.73a4.976 4.976 0 0 1 3.339-1.861 4.996 4.996 0 0 1 5.534 4.39 4.985 4.985 0 0 1-1.056 3.676ZM830.549 414.185a6.14 6.14 0 0 1-9.503.18 6.15 6.15 0 0 1 1.688-9.359 6.142 6.142 0 0 1 6.809.556 6.16 6.16 0 0 1 1.006 8.623Z" fill="#8CA063"/><path d="M799.529 395.638a2.257 2.257 0 0 1-2.344-3.165 2.259 2.259 0 0 1 1.09-1.118 2.266 2.266 0 0 1 1.522.352 2.263 2.263 0 0 1 .823 2.814c-.219.49-.606.886-1.091 1.117ZM792.695 391.118a1.536 1.536 0 0 1-1.2-.087 1.53 1.53 0 0 1-.764-.931 1.524 1.524 0 0 1 .149-1.195 1.532 1.532 0 0 1 .968-.715 1.528 1.528 0 0 1 1.813 1.062 1.526 1.526 0 0 1-.966 1.866ZM796.626 391.536c-.323.1-.669.102-.993.006a1.712 1.712 0 0 1-1.21-1.466 1.703 1.703 0 0 1 .896-1.677 1.708 1.708 0 0 1 2.437 1.023 1.72 1.72 0 0 1-1.13 2.114Z" fill="#B7CE64"/><g opacity=".7" fill="#77AC9F"><path opacity=".5" d="M422.549 416.773H409.75v12.387h12.799v-12.387Z"/><path opacity=".7" d="M473.484 416.773h-12.663v12.387h12.663v-12.387Z"/><path opacity=".5" d="M448.146 416.773h-12.81v12.387h12.81v-12.387Z"/></g><g opacity=".7" fill="#77AC9F"><path opacity=".5" d="M435.416 397.402h-12.799v12.59h12.799v-12.59Z"/><path opacity=".7" d="M486.351 397.402h-12.664v12.59h12.664v-12.59Z"/><path opacity=".5" d="M461.013 397.402h-12.799v12.59h12.799v-12.59Z"/></g><g opacity=".7" fill="#77AC9F"><path opacity=".5" d="M448.113 378.109h-12.799v12.444h12.799v-12.444Z"/><path opacity=".7" d="M499.059 378.109h-12.675v12.444h12.675v-12.444Z"/><path opacity=".5" d="M473.71 378.109h-12.799v12.444h12.799v-12.444Z"/></g><path d="M787.567 86.664h2.349V43.298a15.15 15.15 0 0 0-4.575-10.44 15.132 15.132 0 0 0-21.113 0 15.15 15.15 0 0 0-4.575 10.44l-.09 18.863 3.716 2.87-1.287-21.677c0-3.393 1.347-6.647 3.745-9.046a12.785 12.785 0 0 1 21.83 9.046v43.31Z" fill="#6D4655"/><path d="m788.767 78.539-8.651 8.655 8.651 8.655 8.65-8.655-8.65-8.655Z" fill="#DCA9A1"/><path d="M769.978 63.167h2.35V15.145c0-4.017-1.595-7.869-4.434-10.71a15.133 15.133 0 0 0-25.84 10.71l-1.661 35.036 3.863-1.74.17-33.296c0-3.393 1.347-6.648 3.745-9.047a12.785 12.785 0 0 1 18.084 0 12.798 12.798 0 0 1 3.746 9.047l-.023 48.022Z" fill="#6D4655"/><path d="m771.017 57.233-5.908 5.923 5.908 5.91 5.908-5.91-5.908-5.923Z" fill="#F9E2CB"/><path d="M727.481 14.263a15.135 15.135 0 0 1 10.689 4.432 15.15 15.15 0 0 1 4.437 10.69l1.649 19.033 19.024 16.467 2.146 30.052-20.04 22.514.249 21.914-9.037-2.328 3.05-60.014h3.976l1.254 28.628 14.685-13.144-.892-22.91-18.278-19.427-.135-20.785c0-3.393-1.348-6.647-3.746-9.046a12.783 12.783 0 0 0-18.084 0 12.797 12.797 0 0 0-3.745 9.046v23h-2.327v-23a15.15 15.15 0 0 1 4.437-10.69 15.134 15.134 0 0 1 10.688-4.432Z" fill="#563D4D"/><path d="m713.644 44.632 7.737 7.73-7.737 7.742-7.727-7.742 7.727-7.73Z" fill="#F9E2CB"/><path d="M371.072 455.189h-76.894v12.997h76.894v-12.997Z" fill="#E6EACB"/><path d="M371.072 448.125h-86.439v7.075h86.439v-7.075Z" fill="#CF9B89"/><path d="m824.754 212.874-5.343 5.334 5.343 5.335 5.32-5.335-5.32-5.334Z" fill="#E7EACC"/><path d="m806.68 192.033-8.258 8.261 8.258 8.262 8.246-8.262-8.246-8.261Z" fill="#DCA9A1"/><path d="M190.907 509.947a5.733 5.733 0 0 0 6.378-.203 5.756 5.756 0 0 0-.3-9.551 5.738 5.738 0 0 0-7.908 1.854 5.748 5.748 0 0 0 .206 6.379c.44.613.995 1.134 1.636 1.532l-.012-.011ZM166.191 509.145a1.533 1.533 0 0 0 2.101-.498 1.537 1.537 0 0 0-.486-2.113 1.546 1.546 0 0 0-2.112.497 1.537 1.537 0 0 0 .497 2.114ZM155.968 509.145c.345.21.759.276 1.152.182a1.533 1.533 0 0 0 .463-2.793 1.547 1.547 0 0 0-2.112.497 1.536 1.536 0 0 0 .497 2.114Z" fill="#B7CE64"/><path d="M253.037 475.747a7.052 7.052 0 0 1-5.13 1.676 7.042 7.042 0 0 1-4.811-2.444 7.091 7.091 0 0 1 .746-9.98 7.115 7.115 0 0 1 9.986.768 7.09 7.09 0 0 1-.791 9.98ZM297.748 477.273a6.98 6.98 0 0 1-9.625-2.26 7.036 7.036 0 0 1 2.259-9.664 7.013 7.013 0 0 1 9.636 2.261 7.017 7.017 0 0 1-2.259 9.64l-.011.023ZM319.945 486.914a10.481 10.481 0 0 1-7.932 1.303 10.486 10.486 0 0 1-6.527-4.694 10.561 10.561 0 0 1 3.389-14.512 10.51 10.51 0 0 1 15.77 11.336 10.53 10.53 0 0 1-4.689 6.544l-.011.023Z" fill="#8CA063"/><path d="M241.978 471.712a6.993 6.993 0 0 1-5.088 1.666 6.995 6.995 0 0 1-4.774-2.423 7.032 7.032 0 0 1 .746-9.889 7 7 0 0 1 9.861.768 7.02 7.02 0 0 1-.745 9.878Z" fill="#9BB870"/><path d="M240.046 480.517a6.976 6.976 0 0 1-7.709.919 6.971 6.971 0 0 1-2.141-1.688 7.02 7.02 0 0 1 .734-9.889 7 7 0 0 1 9.873.78 7.017 7.017 0 0 1-.757 9.878Z" fill="#9BB870"/><path d="M286.531 477.092a6.242 6.242 0 0 1-8.608-2.023 6.244 6.244 0 0 1 .23-6.937 6.221 6.221 0 0 1 1.78-1.664 6.25 6.25 0 0 1 8.62 2.001 6.23 6.23 0 0 1 .864 2.288 6.234 6.234 0 0 1-2.886 6.335Z" fill="#8CA063"/><path d="M329.852 483.828a8.547 8.547 0 0 1-11.76-2.769 8.572 8.572 0 0 1 2.745-11.799 8.598 8.598 0 0 1 6.465-1.052 8.6 8.6 0 0 1 5.329 3.81 8.603 8.603 0 0 1-2.779 11.81Z" fill="#B7CE64"/><path d="M265.09 470.424a9.283 9.283 0 0 1-13.081-1.017 9.3 9.3 0 0 1-2.22-6.762 9.301 9.301 0 0 1 3.214-6.349 9.319 9.319 0 0 1 13.115 1.006 9.329 9.329 0 0 1-1.028 13.122Z" fill="#8CA063"/><path d="M341.543 479.319a6.78 6.78 0 0 1-7.505-.295 6.782 6.782 0 0 1 6.745-11.682 6.777 6.777 0 0 1 3.914 5.068 6.792 6.792 0 0 1-1.194 5.097 6.778 6.778 0 0 1-1.96 1.812Z" fill="#B7CE64"/><path d="M306.852 481.025a6.14 6.14 0 0 1-9.001-3.045 6.156 6.156 0 0 1 1.546-6.656 6.143 6.143 0 0 1 9.421 1.236 6.152 6.152 0 0 1-1.966 8.465ZM290.461 481.783a4.37 4.37 0 0 1 2.18 4.341 4.378 4.378 0 0 1-3.174 3.677 4.366 4.366 0 0 1-4.61-1.523 4.377 4.377 0 0 1-.36-4.845 4.354 4.354 0 0 1 2.638-2.072 4.342 4.342 0 0 1 3.326.422Z" fill="#8CA063"/><path d="M270.964 463.485a4.38 4.38 0 0 1 2.83 3.967 4.386 4.386 0 0 1-5.107 4.459 4.385 4.385 0 0 1-3.371-5.883 4.367 4.367 0 0 1 2.294-2.45 4.364 4.364 0 0 1 3.354-.093Z" fill="#A1BC79"/><path d="M293.444 497.594a2.982 2.982 0 0 1 1.502 2.971 2.95 2.95 0 0 1-.373 1.109 2.977 2.977 0 0 1-2.959 1.482 2.981 2.981 0 0 1-2.464-3.893 2.985 2.985 0 0 1 4.294-1.669Z" fill="#8CA063"/><path d="M228.998 467.723a2.982 2.982 0 0 1-1.536 5.736 2.98 2.98 0 0 1-2.418-2.267 2.984 2.984 0 0 1 .114-1.729 2.952 2.952 0 0 1 1.556-1.674 2.949 2.949 0 0 1 2.284-.066ZM186.807 503.946a2.986 2.986 0 0 1 1.385 1.053 2.997 2.997 0 0 1-1.183 4.48 2.992 2.992 0 0 1-4.157-2.044 2.998 2.998 0 0 1 .114-1.738 2.982 2.982 0 0 1 1.555-1.677 2.989 2.989 0 0 1 1.136-.266c.392-.013.783.052 1.15.192ZM277.572 464.309a3.5 3.5 0 0 1 2.28 3.168c.015.462-.061.921-.224 1.353a3.55 3.55 0 0 1-4.518 2.035 3.525 3.525 0 0 1-1.913-4.494 3.52 3.52 0 0 1 4.409-2.095l-.034.033Z" fill="#A1BC79"/><path d="M288.666 491.48a3.383 3.383 0 0 1 1.768 3.358 3.396 3.396 0 0 1-2.455 2.896 3.393 3.393 0 0 1-3.6-1.199 3.392 3.392 0 0 1 1.773-5.332 3.388 3.388 0 0 1 2.514.277ZM164.214 502.838a3.39 3.39 0 0 1-2.67 6.206 3.389 3.389 0 0 1-1.848-4.94 3.385 3.385 0 0 1 4.518-1.266Z" fill="#8CA063"/><path d="M328.056 460.535a3.088 3.088 0 0 1-.777-4.706 3.082 3.082 0 0 1 4.765.155 3.088 3.088 0 0 1-1.648 4.859 3.079 3.079 0 0 1-2.34-.308ZM296.934 457.438a3.1 3.1 0 0 1-1.531-3.086 3.097 3.097 0 0 1 5.528-1.483 3.095 3.095 0 0 1 .217 3.439 3.085 3.085 0 0 1-4.214 1.13ZM325.457 449.617a2.095 2.095 0 0 1-1.067-2.098c.035-.276.126-.543.265-.784a2.12 2.12 0 0 1 2.095-1.058 2.12 2.12 0 0 1 1.122.496 2.12 2.12 0 0 1 .629 2.262 2.11 2.11 0 0 1-3.044 1.182ZM329.321 453.686a2.377 2.377 0 0 1 .526-4.358 2.365 2.365 0 0 1 2.506.83 2.369 2.369 0 0 1 .187 2.635 2.371 2.371 0 0 1-3.219.893Z" fill="#B7CE64"/><path d="M214.132 508.478a5.33 5.33 0 0 0 5.004 3.152 5.318 5.318 0 0 0 4.824-3.419 5.322 5.322 0 0 0-7.139-6.763 5.35 5.35 0 0 0-2.689 7.03Z" fill="#90A367"/><path d="M228.569 503.968a7.367 7.367 0 0 0 4.129 1.098 7.367 7.367 0 0 0 6.918-9.039 7.372 7.372 0 0 0-5.966-5.595 7.365 7.365 0 0 0-7.453 3.365 7.352 7.352 0 0 0-.936 5.581 7.353 7.353 0 0 0 3.308 4.59ZM193.878 503.968a7.364 7.364 0 0 0 10.775-3.664 7.374 7.374 0 0 0-1.85-7.969 7.363 7.363 0 0 0-12.307 4.157 7.375 7.375 0 0 0 3.382 7.476ZM174.595 508.67a5.641 5.641 0 0 0 6.248-.258 5.648 5.648 0 0 0 2.182-5.863 5.653 5.653 0 0 0-4.56-4.282 5.65 5.65 0 0 0-5.51 8.892 5.66 5.66 0 0 0 1.64 1.511Z" fill="#8CA063"/><path d="M297.397 469.35a8.77 8.77 0 0 1-9.741-.348 8.777 8.777 0 0 1-3.413-9.136 8.783 8.783 0 0 1 7.126-6.655 8.771 8.771 0 0 1 8.875 4.035 8.752 8.752 0 0 1 1.096 6.645 8.765 8.765 0 0 1-3.943 5.459Z" fill="#B7CE64"/><path d="M317.652 472.763a12.786 12.786 0 0 1-19.157-13.827 12.792 12.792 0 0 1 10.387-9.69 12.788 12.788 0 0 1 12.927 5.886 12.81 12.81 0 0 1 1.756 4.682 12.791 12.791 0 0 1-5.913 12.949ZM237.222 487.818a8.045 8.045 0 0 0 10.606-10.41 8.056 8.056 0 0 0-4.302-4.407 8.098 8.098 0 0 0-10.574 4.249 8.099 8.099 0 0 0 4.27 10.568Z" fill="#B7CE64"/><path d="M227.383 487.581a5.988 5.988 0 0 0 7.873-7.756 5.987 5.987 0 0 0-8.804-2.8 5.981 5.981 0 0 0-2.304 7.262 6.003 6.003 0 0 0 3.235 3.294ZM232.839 469.96c.344-.28.598-.657.729-1.081a2.254 2.254 0 0 0-.701-2.397 2.25 2.25 0 0 0-2.48-.288 2.257 2.257 0 0 0-1.23 2.174 2.256 2.256 0 0 0 1.14 1.808 2.267 2.267 0 0 0 1.748.203c.29-.085.56-.227.794-.419ZM233.483 462.072a1.57 1.57 0 0 0 .069-2.432 1.574 1.574 0 0 0-1.735-.215 1.568 1.568 0 0 0-.858 1.524c.024.311.14.607.332.852a1.574 1.574 0 0 0 2.192.271ZM231.032 465.214a1.757 1.757 0 0 0 .601-1.854 1.751 1.751 0 1 0-3.053 1.571 1.764 1.764 0 0 0 2.452.283ZM242.689 478.979a9.473 9.473 0 0 0 10.345-1.97 9.48 9.48 0 0 0 2.14-10.316 9.473 9.473 0 0 0-8.707-5.926 9.474 9.474 0 0 0-8.804 5.78 9.468 9.468 0 0 0 1.963 10.356 9.452 9.452 0 0 0 3.063 2.076Z" fill="#B7CE64"/><path d="M328.315 462.716a5.044 5.044 0 0 1 1.318 7.677 5.04 5.04 0 0 1-5.394 1.489 5.04 5.04 0 0 1-2.803-7.267 5.018 5.018 0 0 1 5.01-2.528 5.018 5.018 0 0 1 1.869.629Z" fill="#DAE6AE"/><path d="M217.646 515.745a3.107 3.107 0 0 0 .855-5.066 3.083 3.083 0 0 0-2.204-.853 3.075 3.075 0 0 0-2.162.955 3.09 3.09 0 0 0-.59 3.382 3.131 3.131 0 0 0 4.101 1.582ZM182.921 510.569a3.123 3.123 0 0 0 1.547-4.092 3.082 3.082 0 0 0-4.072-1.576 3.09 3.09 0 0 0-1.576 4.074 3.142 3.142 0 0 0 4.101 1.594ZM172.359 510.569a3.123 3.123 0 0 0 1.547-4.092 3.082 3.082 0 0 0-4.072-1.576 3.09 3.09 0 0 0-1.576 4.074 3.142 3.142 0 0 0 4.101 1.594ZM161.119 510.422a3.107 3.107 0 0 0 1.548-4.091 3.091 3.091 0 0 0-1.71-1.633 3.091 3.091 0 0 0-3.994 1.767 3.087 3.087 0 0 0 .055 2.363 3.151 3.151 0 0 0 4.101 1.594ZM219.408 517.203a2.191 2.191 0 0 0 2.881 1.13 2.17 2.17 0 1 0-2.442-3.493 2.177 2.177 0 0 0-.439 2.363ZM224.412 502.94a10.053 10.053 0 0 0 4.982-13.144 9.907 9.907 0 0 0-12.84-4.528 9.917 9.917 0 0 0-5.234 12.575 10.166 10.166 0 0 0 13.092 5.097Z" fill="#B7CE64"/><path d="m239.596 512.385-3.304 3.311 3.309 3.306 3.304-3.311-3.309-3.306ZM247.242 508.501l-4.846 4.859-4.846-4.859 4.846-4.838 4.846 4.838ZM237.652 496.331l-5.274 5.273 5.27 5.276 5.274-5.272-5.27-5.277Z" fill="#B1CD4E"/><path d="m111.234 476.278-8.067 8.072 8.067 8.072 8.068-8.072-8.068-8.072Z" fill="#D2BA5C"/><path d="m826.903 395.041-7.684 7.688 7.684 7.689 7.684-7.688-7.684-7.689Z" fill="#A8C866"/><path d="m819.195 420.573-6.342 6.346 6.342 6.345 6.342-6.345-6.342-6.346Z" fill="#CEBE5C"/><path d="m503.27 201.573-9.01 9.015 9.01 9.015 9.011-9.015-9.011-9.015Z" fill="#BCCC5D"/><path d="m531.907 220.593-6.229 6.234 6.231 6.233 6.23-6.235-6.232-6.232Z" fill="#C8BF66"/><path d="m576.188 185.381-12.085 12.091 12.085 12.092 12.085-12.092-12.085-12.091Z" fill="#C9C15C"/><path d="m255.237 351.542-11.406 11.412 11.406 11.412 11.407-11.412-11.407-11.412Z" fill="#BFCA5D"/><path d="m217.641 431.174-6.782 6.784 6.78 6.786 6.783-6.783-6.781-6.787Z" fill="#CCD36A"/><path d="m212.687 391.323-6.783 6.784 6.781 6.786 6.782-6.784-6.78-6.786Z" fill="#CFBD5C"/><path d="m59.806 431.164-5.679 5.683 5.68 5.682 5.679-5.684-5.68-5.681Z" fill="#ABDC86"/><path d="m79.143 399.206-5.64 5.641 5.638 5.643 5.64-5.641-5.638-5.643Z" fill="#C5C55D"/><path d="m4.565 458.795-4.586 4.587 4.584 4.588 4.586-4.587-4.584-4.588Z" fill="#76DBA5"/><path opacity=".5" d="m483.481 286.495-5.761 1.627-5.648 2.114-5.535 2.565-5.287 3.007c-1.672 1.13-3.389 2.26-5.049 3.39-1.661 1.131-3.208 2.532-4.779 3.854-1.57 1.323-3.027 2.781-4.518 4.227-1.491 1.447-2.813 3.018-4.146 4.6-1.333 1.583-2.575 3.244-3.773 4.939l-1.717 2.6-.87 1.311c-.282.429-.564.87-.813 1.333l-1.502 2.747-.757 1.379c-.266.451-.504.919-.712 1.401l-1.288 2.871-.644 1.435c-.227.478-.427.969-.598 1.469l-1.051 2.973-.531 1.492c-.192.493-.35.999-.474 1.514-.531 2.046-1.13 4.08-1.593 6.148-.463 2.069-.768 4.182-1.13 6.296l-.598 6.374 8.766-4.148-.61-.565 1.976 4.193.181-8.16c-.113-2.712-.192-5.448-.35-8.171-.158-2.724-.52-5.448-.87-8.172l-.678-4.057-.338-2.034-.17-1.029-.226-1.006-.926-4.023c-.316-1.345-.588-2.702-1.017-4.013l-1.129-3.978-.599-1.989-.7-1.955c-.961-2.6-1.808-5.256-2.971-7.776l-1.661-3.843-.418-.949-.463-.938-.938-1.865-1.897-3.741c-.656-1.232-1.39-2.419-2.079-3.639a166.406 166.406 0 0 0-2.124-3.628l-2.327-3.504c-.79-1.13-1.513-2.362-2.372-3.481l-2.542-3.39c-1.638-2.261-3.535-4.386-5.354-6.544l-1.378-1.616-1.457-1.538-2.937-3.062c-.961-1.052-2.022-1.99-3.062-2.962l-3.117-2.904c-2.135-1.865-4.372-3.639-6.564-5.459l-6.631-4.837-13.476 20.795 3.389 1.933 1.694.961.848.486.418.248.214.113.102.068h.056c.091 0-.621-.418-.305-.215 1.943 1.3 3.943 2.532 5.886 3.877l2.835 2.102c.949.701 1.932 1.368 2.813 2.148l2.722 2.26 1.367 1.13 1.299 1.221c1.706 1.639 3.525 3.198 5.106 4.973l2.463 2.599c.836.859 1.547 1.809 2.327 2.713l2.315 2.746 2.147 2.882c.711.972 1.457 1.921 2.135 2.905l1.977 3.017.994 1.515.497.757.452.791 1.796 3.142c1.265 2.068 2.259 4.284 3.389 6.442l.802 1.639.711 1.684 1.412 3.391c.509 1.13.881 2.26 1.288 3.39l1.22 3.459.305.87.249.882.497 1.763 1.005 3.537c.587 2.385 1.062 4.792 1.604 7.211.542 2.418.757 4.871 1.13 7.324l.677 7.414.26 2.927 1.717 1.254.667.486 8.958 6.544-.192-10.691-.102-5.584c.068-1.864.226-3.718.328-5.594.101-1.876.531-3.707.79-5.572.062-.468.153-.933.271-1.39l.328-1.368.633-2.769c.104-.458.232-.911.384-1.356l.44-1.356.859-2.713c.139-.454.305-.899.497-1.333l.542-1.323 1.13-2.644c.175-.442.379-.873.61-1.289l.655-1.277 1.299-2.565c.915-1.684 1.977-3.278 2.971-4.939.994-1.662 2.259-3.131 3.389-4.713 1.129-1.583 2.496-2.95 3.75-4.442s2.745-2.758 4.112-4.148c1.367-1.39 2.971-2.543 4.462-3.831l4.767-3.47 5.049-3.097 5.298-2.678 5.524-2.125Z" fill="#fff"/><path fill-rule="evenodd" clip-rule="evenodd" d="M338.606 206.217a14.258 14.258 0 0 1 2.35-3.459 9.479 9.479 0 0 1 10.268-2.95 4.123 4.123 0 0 1 2.903 2.43 3.75 3.75 0 0 0 2.373 2.261c4.36 1.861 8.705 3.744 13.036 5.651 4.258 1.898 8.415 4.001 12.764 5.719 9.817 3.887 19.43 8.273 29.224 12.183 3.265 1.3 6.518 3.481 10.517 1.537 1.593-.78 3.264.543 4.225 2.182a26.744 26.744 0 0 1 2.259 5.458c.508 1.628 1.491 2.023 3.005 1.357a36.326 36.326 0 0 1 4.304-1.786 3.558 3.558 0 0 1 2.903.061 3.562 3.562 0 0 1 1.897 2.199c1.356 3.255 2.847 6.454 4.09 9.743 1.062 2.825-.158 5.187-3.016 6.238-2.858 1.051-5.649 1.899-8.337 3.018-3.75 1.526-5.366.904-6.721-2.893-.384-1.131-.814-2.159-1.13-3.255a4.63 4.63 0 0 0-2.689-2.995c-14.199-6.782-28.477-13.472-42.394-20.875-6.575-3.492-20.887-10.782-21.384-11.076-5.502-3.3-5.027-3.73-6.699 2.475a5.85 5.85 0 0 1-5.038 4.035 3.392 3.392 0 0 0-3.22 3.153c-.094.564-.233 1.12-.418 1.661-.237.645-.214 1.628-1.129 1.617-.915-.012-1.13-1.029-1.265-1.82-.464-2.453-.43-5.007-1.435-7.346v-.181a14.229 14.229 0 0 1-1.243-14.342Z" fill="#FBFBFB"/><path fill-rule="evenodd" clip-rule="evenodd" d="M356.545 221.52c1.073.565 2.044 1.446 1.739 2.701-.542 2.158.678 2.837 2.26 3.594 8.517 4.035 16.944 8.16 25.495 12.195 1.785.847 3.017 2.079 2.26 4.001-1.186 3.108-2.373 6.272-4.654 8.849-3.209 3.594-7.196 6.148-11.184 8.737l-9.477 3.209c-5.648 1.029-11.297.565-17.013-.124a11.724 11.724 0 0 1-4.879-2.057 7.56 7.56 0 0 1-3.807-7.109c.101-2.362.621-4.86-.249-7.222.187-1.046.307-2.103.362-3.164a103.326 103.326 0 0 0-1.13-14.93c-.61-3.719-.904-7.494 3.479-9.438 1.006 2.34.972 4.894 1.435 7.347.147.791.203 1.797 1.265 1.819 1.062.023.938-.972 1.13-1.616.184-.541.324-1.097.418-1.661a3.39 3.39 0 0 1 3.219-3.154 5.846 5.846 0 0 0 5.038-4.034c1.503.678 2.915 1.322 4.293 2.057Zm-4.236 5.651a3.622 3.622 0 0 0-3.943-.226c-2.135 1.322-1.931 4.26.531 5.56 2.892 1.537 5.897 2.871 8.902 4.182 6.145 2.69 12.324 5.323 18.503 7.911a41.11 41.11 0 0 0 4.146 1.492c1.129.373 2.349.305 2.948-.983.599-1.289-.271-2.26-1.333-2.758-4.518-2.26-9.139-4.419-13.714-6.623-5.365-2.904-10.799-5.56-16.04-8.555Z" fill="#B0433A"/><path fill-rule="evenodd" clip-rule="evenodd" d="m372.529 261.585-9.477 3.21c1.592 3.809 4.349 6.906 6.404 10.432 5.389 9.279 11.986 17.721 18.413 26.277 1.469 1.944 3.265 2.26 4.519 1.017a2.586 2.586 0 0 0 .282-3.56 376.787 376.787 0 0 1-19.633-36.562 5.432 5.432 0 0 0-.508-.814Z" fill="#F4F4F4"/><path fill-rule="evenodd" clip-rule="evenodd" d="M346.039 264.671a11.746 11.746 0 0 1-4.88-2.057 7.569 7.569 0 0 1-3.806-7.109c.101-2.362.621-4.86-.249-7.222-3.988 0-8.099 2.938-8.89 6.724-.712 3.391 1.129 6.013 3.479 8.172 3.457 3.164 7.636 5.312 11.658 7.64a63.672 63.672 0 0 1 7.015 4.882c1.525 1.131 2.767 1.131 3.942-.463a2.637 2.637 0 0 0 .764-2.128 2.646 2.646 0 0 0-1.159-1.941c-2.598-2.181-5.242-4.328-7.874-6.498ZM368.349 235.704c-5.365-2.848-10.799-5.538-16.04-8.59a3.622 3.622 0 0 0-3.943-.226c-2.135 1.322-1.931 4.261.531 5.561 2.892 1.537 5.897 2.87 8.902 4.181 6.145 2.69 12.324 5.324 18.503 7.912a41.11 41.11 0 0 0 4.146 1.492c1.129.373 2.349.305 2.948-.984.599-1.288-.271-2.26-1.333-2.757-4.552-2.215-9.139-4.385-13.714-6.589Z" fill="#FBFBFB"/><path fill-rule="evenodd" clip-rule="evenodd" d="M340.018 207.155a5.27 5.27 0 0 1 1.74-2.385 5.494 5.494 0 0 1 2.869-.848 3.312 3.312 0 0 1 3.389 1.922c1.469 4.43 1.943 8.951 0 13.392a2.957 2.957 0 0 1-2.788 2.007 2.958 2.958 0 0 1-1.188-.243 2.07 2.07 0 0 1-.542-.181 4.86 4.86 0 0 1-2.26-1.729 11.51 11.51 0 0 1-1.22-11.935Z" fill="#C09692"/><path d="M503.374 359.461a12.58 12.58 0 0 1 7.386 23.54 12.559 12.559 0 0 1-4.686 1.471 12.538 12.538 0 0 1-9.225-2.697 12.57 12.57 0 0 1-3.146-3.758 12.57 12.57 0 0 1-1.467-4.677 12.522 12.522 0 0 1 6.414-12.407 12.497 12.497 0 0 1 4.679-1.472h.045Z" fill="#8CA063"/><path d="M451.479 362.716a5.661 5.661 0 0 0 2.202-3.722 5.659 5.659 0 0 0-2.713-5.662 5.648 5.648 0 0 0-8.469 4.064 5.653 5.653 0 0 0 4.792 6.393 5.65 5.65 0 0 0 4.188-1.073Z" fill="#9BB870"/><path d="M414.303 380.279a7.611 7.611 0 0 0 1.4-10.703 7.554 7.554 0 0 0-5.012-2.939 7.555 7.555 0 0 0-5.617 1.481 7.603 7.603 0 0 0-2.756 7.989 7.61 7.61 0 0 0 1.298 2.669 7.613 7.613 0 0 0 10.653 1.458l.034.045Z" fill="#90A367"/><path d="M449.016 371.836a7.718 7.718 0 0 0-7.584-4.05 7.702 7.702 0 0 0-2.887.886 7.715 7.715 0 0 0-4.062 7.595 7.755 7.755 0 0 0 5.47 6.64 7.75 7.75 0 0 0 5.889-.582 7.76 7.76 0 0 0 3.757-4.587 7.76 7.76 0 0 0-.583-5.902ZM428.017 381.76a11.161 11.161 0 0 0 2.135-15.575 11.13 11.13 0 0 0-7.343-4.304 11.12 11.12 0 0 0-8.235 2.146 11.147 11.147 0 0 0-2.135 15.608 11.169 11.169 0 0 0 15.6 2.125h-.022Z" fill="#B7CE64"/><path d="M439.516 378.979a6.962 6.962 0 0 0 1.333-9.742 6.942 6.942 0 0 0-11.525.708 6.938 6.938 0 0 0 .477 7.712 6.932 6.932 0 0 0 9.715 1.322Z" fill="#B7CE64"/><path d="M407.796 369.237a6.007 6.007 0 0 0 2.167-6.325 6.01 6.01 0 0 0-1.037-2.106 6.002 6.002 0 0 0-6.313-2.164 6.005 6.005 0 0 0-2.103 1.033 6.04 6.04 0 0 0-1.13 8.432 6.031 6.031 0 0 0 8.439 1.13h-.023Z" fill="#90A367"/><path d="M488 378.878a5.634 5.634 0 0 0 1.757 1.352 5.632 5.632 0 0 0 6.252-.844 5.646 5.646 0 0 0 1.906-3.9 5.65 5.65 0 0 0-1.42-4.102 5.657 5.657 0 0 0-3.899-1.925 5.654 5.654 0 0 0-4.11 1.417 5.634 5.634 0 0 0-1.907 3.9 5.655 5.655 0 0 0 1.421 4.102Z" fill="#8EA266"/><path d="M464.775 380.019a8.4 8.4 0 0 0 2.587-11.573c-2.486-3.922-11.602-2.6-11.602-2.6-3.92 2.487-2.587 11.607-2.587 11.607a8.396 8.396 0 0 0 8.542 3.787 8.39 8.39 0 0 0 3.06-1.187v-.034Z" fill="#8B9F61"/><path d="M472.603 381.104c3.389 3.809 12.979.814 12.979.814a9.25 9.25 0 0 0 .814-13.02 9.218 9.218 0 0 0-12.968-.791 9.159 9.159 0 0 0-3.121 6.326 9.169 9.169 0 0 0 2.296 6.671Z" fill="#9BB870"/><path d="M483.346 381.443a4.512 4.512 0 0 0 4.885 1.297 4.515 4.515 0 0 0 1.531-.901 4.523 4.523 0 0 0 .395-6.409 4.515 4.515 0 0 0-6.405-.395 4.521 4.521 0 0 0-.406 6.408Z" fill="#B7CE64"/><path d="M465.961 379.104c1.615 1.853 6.28.407 6.28.407s2.022-4.521.396-6.318a4.461 4.461 0 0 0-7.65 2.734 4.467 4.467 0 0 0 .974 3.177Z" fill="#D5E2A4"/><path d="M467.328 383.591a3.422 3.422 0 0 0-1.604-6.113 3.415 3.415 0 0 0-2.531.665 3.385 3.385 0 0 0-1.332 2.251 3.4 3.4 0 0 0 .666 2.53 3.393 3.393 0 0 0 3.599 1.262 3.394 3.394 0 0 0 1.202-.595ZM411.422 341.807a2.656 2.656 0 0 0 3.389-1.469 2.613 2.613 0 0 0-1.483-3.325 2.607 2.607 0 0 0-3.363 1.392 2.668 2.668 0 0 0 1.457 3.402Z" fill="#A1BC79"/><path d="M403.074 360.874a3.703 3.703 0 0 0 4.018-.853 3.711 3.711 0 0 0 .763-4.037 3.708 3.708 0 0 0-5.479-1.632 3.711 3.711 0 0 0-1.358 1.662 3.73 3.73 0 0 0 .017 2.858 3.72 3.72 0 0 0 2.039 2.002Z" fill="#90A367"/><path d="M407.243 350.634a3.734 3.734 0 0 0 2.865-.041 3.743 3.743 0 0 0 1.128-6.126 3.739 3.739 0 0 0-1.226-.795 3.704 3.704 0 0 0-2.868.034 3.713 3.713 0 0 0-1.989 2.068 3.765 3.765 0 0 0 2.09 4.86Z" fill="#A1BC79"/><path d="M524.724 396.882a5.122 5.122 0 0 1-4.914-5.312 5.101 5.101 0 0 1 3.335-4.616 5.11 5.11 0 0 1 3.918.155 5.116 5.116 0 0 1 2.971 4.856 5.114 5.114 0 0 1-1.632 3.565 5.083 5.083 0 0 1-3.678 1.352ZM518.907 370.22a5.504 5.504 0 0 1 5.883 7.011 5.516 5.516 0 0 1-2.629 3.291 5.493 5.493 0 0 1-6.09-.526 5.495 5.495 0 0 1-2.022-3.695 5.472 5.472 0 0 1 4.858-6.081Z" fill="#B7CE64"/><path d="M528.96 363.563a9.624 9.624 0 0 1 10.619 8.533 9.632 9.632 0 0 1-2.047 7.084 9.626 9.626 0 0 1-10.205 3.227 9.617 9.617 0 0 1-6.873-8.208 9.58 9.58 0 0 1 2.036-7.093 9.574 9.574 0 0 1 6.47-3.543ZM527.017 404.612a3.105 3.105 0 0 1-2.176-.997 3.118 3.118 0 0 1-.828-2.246 3.105 3.105 0 0 1 3.23-3.007 3.128 3.128 0 0 1 2.994 3.244 3.122 3.122 0 0 1-3.22 3.006ZM530.079 410.58a2.465 2.465 0 0 1-2.14-3.485 2.44 2.44 0 0 1 2.32-1.42 2.443 2.443 0 0 1 2.21 1.597 2.456 2.456 0 0 1-2.39 3.308Z" fill="#B7CE64"/><path d="M399.821 361.54a4.078 4.078 0 0 1 4.767 3.221 4.08 4.08 0 0 1-3.22 4.781 4.075 4.075 0 0 1-1.547-8.002Z" fill="#DAE6AE"/><path d="M401.911 367.395a4.979 4.979 0 0 1 5.84 3.955c.531 2.702-3.943 5.866-3.943 5.866a5.019 5.019 0 0 1-5.851-3.956 5.01 5.01 0 0 1 .764-3.751 5 5 0 0 1 3.19-2.114Z" fill="#D5E2A4"/><path d="M454.111 378.222a6.51 6.51 0 0 1-6.66 2.93 6.492 6.492 0 0 1-2.377-.941 6.517 6.517 0 0 1-2.871-4.107 6.54 6.54 0 0 1 4.993-7.794 6.525 6.525 0 0 1 4.927.893 6.51 6.51 0 0 1 2.928 6.663 6.524 6.524 0 0 1-.94 2.379v-.023ZM202.994 511.077a8.084 8.084 0 0 0 11.139-2.599 8.131 8.131 0 0 0-2.587-11.189 8.12 8.12 0 0 0-11.161 2.622 8.116 8.116 0 0 0 2.609 11.166Z" fill="#B7CE64"/></g><defs><clipPath id="a"><path fill="#fff" d="M0 0h913v519H0z"/></clipPath></defs></svg>